<?xml version="1.0" encoding="iso-8859-1"?>
<!-- Generator: Adobe Illustrator 19.0.0, SVG Export Plug-In . SVG Version: 6.00 Build 0)  -->
<svg version="1.1" id="Layer_1" xmlns="http://www.w3.org/2000/svg" xmlns:xlink="http://www.w3.org/1999/xlink" x="0px" y="0px"
	 viewBox="0 0 512.001 512.001" style="enable-background:new 0 0 512.001 512.001;" xml:space="preserve">
<g>
	<g>
		<path d="M256.001,0C114.841,0,0,114.841,0,256.001s114.841,256.001,256.001,256.001S512.001,397.16,512.001,256.001
			S397.16,0,256.001,0z M256.001,493.701c-131.069,0-237.702-106.631-237.702-237.7S124.932,18.299,256.001,18.299
			s237.702,106.632,237.702,237.702S387.068,493.701,256.001,493.701z"/>
	</g>
</g>
<g>
	<g>
		<path d="M232.024,202.982c-1.327-4.877-6.362-7.752-11.231-6.428c-64.932,17.664-93.048-23.646-94.229-25.438
			c-2.746-4.219-8.386-5.43-12.622-2.702c-4.249,2.735-5.475,8.397-2.74,12.646c0.305,0.476,6.439,9.849,19.049,19.163
			c-10.357,5.796-17.378,16.869-17.378,29.558c0,18.666,15.186,33.852,33.852,33.852s33.851-15.187,33.851-33.852
			c0-3.914-0.676-7.672-1.903-11.172c3.656,0.376,7.477,0.589,11.481,0.589c10.598,0,22.412-1.442,35.442-4.985
			C230.471,212.887,233.349,207.859,232.024,202.982z"/>
	</g>
</g>
<g>
	<g>
		<path d="M360.696,327.169c-14.731-41.961-55.068-70.154-100.374-70.154c-45.315,0-85.656,28.193-100.385,70.154
			c-1.673,4.768,0.836,9.989,5.603,11.664c4.772,1.675,9.99-0.834,11.665-5.603c12.159-34.641,45.562-57.915,83.118-57.915
			c37.549,0,70.947,23.274,83.106,57.915c1.322,3.766,4.857,6.123,8.634,6.122c1.005,0,2.028-0.167,3.03-0.518
			C359.86,337.16,362.368,331.938,360.696,327.169z"/>
	</g>
</g>
<g>
	<g>
		<path d="M296.78,308.952c-11.375-8.714-25.626-13.512-40.126-13.512c-15.208,0-29.997,5.216-41.644,14.691
			c-3.921,3.188-4.513,8.951-1.325,12.872c1.808,2.224,4.445,3.377,7.104,3.377c2.029,0,4.071-0.671,5.768-2.052
			c8.394-6.827,19.083-10.587,30.097-10.587c10.499,0,20.799,3.459,28.999,9.74c4.012,3.073,9.755,2.312,12.828-1.701
			C301.553,317.769,300.792,312.025,296.78,308.952z"/>
	</g>
</g>
<g>
	<g>
		<path d="M400.8,181.06c2.724-4.234,1.504-9.853-2.714-12.601c-4.219-2.749-9.879-1.551-12.647,2.655
			c-1.164,1.768-29.28,43.107-94.229,25.441c-4.871-1.325-9.903,1.551-11.231,6.428c-1.326,4.876,1.552,9.903,6.428,11.231
			c13.033,3.544,24.843,4.985,35.442,4.985c4.003,0,7.823-0.214,11.48-0.589c-1.227,3.5-1.903,7.257-1.903,11.172
			c0,18.666,15.186,33.852,33.852,33.852s33.852-15.186,33.852-33.852c0-12.689-7.021-23.762-17.378-29.558
			C394.361,190.908,400.495,181.536,400.8,181.06z"/>
	</g>
</g>
<g>
	<g>
		<g>
			<circle cx="155.969" cy="225.835" r="9.15"/>
			<circle cx="374.338" cy="225.835" r="9.15"/>
		</g>
	</g>
</g>
<g>
</g>
<g>
</g>
<g>
</g>
<g>
</g>
<g>
</g>
<g>
</g>
<g>
</g>
<g>
</g>
<g>
</g>
<g>
</g>
<g>
</g>
<g>
</g>
<g>
</g>
<g>
</g>
<g>
</g>
</svg>
