<?xml version="1.0"?>
<svg xmlns="http://www.w3.org/2000/svg" height="512px" viewBox="-88 0 464 464" width="512px"><path d="m240 144c0 53.019531-42.980469 96-96 96s-96-42.980469-96-96 42.980469-96 96-96 96 42.980469 96 96zm0 0" fill="#D80027"/><path d="m144 0c-79.398438 0-144 64.601562-144 144v1.039062c0 38.464844 14.976562 74.625 42.175781 101.832032l12.382813 12.386718c42.488281 42.484376 69.777344 96.328126 78.914062 155.71875.808594 5.230469 5.230469 9.03125 10.519532 9.03125 5.289062 0 9.71875-3.800781 10.519531-9.03125 9.144531-59.390624 36.433593-113.234374 78.914062-155.71875l12.382813-12.386718c27.199218-27.199219 42.175781-63.367188 42.175781-101.832032v-1.039062c.015625-79.398438-64.585937-144-143.984375-144zm-24 288h-16v-16h16zm32 0h-16v-16h16zm32 0h-16v-16h16zm-40-32c-61.761719 0-112-50.238281-112-112s50.238281-112 112-112 112 50.238281 112 112-50.238281 112-112 112zm0 0" fill="#D80027"/><path d="m181.457031 372.390625c-1.714843 5.058594-3.210937 10.195313-4.617187 15.371094 22.945312 5.613281 39.160156 16.917969 39.160156 28.238281 0 15.136719-29.566406 32-72 32s-72-16.863281-72-32c0-11.320312 16.214844-22.632812 39.167969-28.230469-1.40625-5.175781-2.902344-10.3125-4.625-15.378906-30.71875 7.632813-50.542969 24.3125-50.542969 43.609375 0 26.910156 38.65625 48 88 48s88-21.089844 88-48c0-19.289062-19.824219-35.96875-50.542969-43.609375zm0 0" fill="#D80027"/></svg>
